<?xml version="1.0" encoding="UTF-8" standalone="no"?>
<!-- Generated OG image for Kutsum -->

<svg
   width="1200"
   height="630"
   viewBox="0 0 1200 630"
   version="1.1"
   id="svg8"
   sodipodi:docname="og-image.svg"
   xml:space="preserve"
   inkscape:version="1.4.2 (f4327f4, 2025-05-13)"
   xmlns:inkscape="http://www.inkscape.org/namespaces/inkscape"
   xmlns:sodipodi="http://sodipodi.sourceforge.net/DTD/sodipodi-0.dtd"
   xmlns="http://www.w3.org/2000/svg"
   xmlns:svg="http://www.w3.org/2000/svg"><sodipodi:namedview
     id="namedview8"
     pagecolor="#ffffff"
     bordercolor="#000000"
     borderopacity="0.25"
     inkscape:showpageshadow="2"
     inkscape:pageopacity="0.0"
     inkscape:pagecheckerboard="0"
     inkscape:deskcolor="#d1d1d1"
     inkscape:zoom="0.70768639"
     inkscape:cx="565.22212"
     inkscape:cy="245.16509"
     inkscape:window-width="1920"
     inkscape:window-height="991"
     inkscape:window-x="-9"
     inkscape:window-y="-9"
     inkscape:window-maximized="1"
     inkscape:current-layer="g4" /><defs
     id="defs2"><linearGradient
       id="g"
       x1="0"
       y1="0"
       x2="1"
       y2="1"><stop
         offset="0"
         stop-color="#5fbcd3"
         id="stop1" /><stop
         offset="1"
         stop-color="#153B50"
         id="stop2" /></linearGradient><style
       id="style2">
      @import url('https://fonts.googleapis.com/css2?family=Inter:wght@600;800&amp;display=swap');
      .bg { fill: url(#g); }
      .title { font-family: 'Inter', system-ui, -apple-system, 'Segoe UI', Roboto, 'Helvetica Neue', Arial; font-weight:800; font-size:56px; fill:#fff }
      .slogan { font-family: 'Inter', system-ui, -apple-system, 'Segoe UI', Roboto, 'Helvetica Neue', Arial; font-weight:600; font-size:28px; fill:rgba(255,255,255,0.95) }
      .tag { font-family: 'Inter', system-ui, -apple-system, 'Segoe UI', Roboto, 'Helvetica Neue', Arial; font-weight:600; font-size:18px; fill:rgba(255,255,255,0.9) }
    </style></defs><rect
     width="1200"
     height="630"
     rx="24"
     class="bg"
     id="rect2" /><g
     transform="translate(72,120)"
     id="g4"><text
       class="title"
       id="text2">Kutsum</text><text
       class="slogan"
       y="72"
       id="text3">L'application de révisions qui n'en fait qu'à sa tête</text><text
       class="tag"
       y="140"
       id="text4">Quiz interactifs · Tournois · Open source</text></g><!-- small app icon (shield) --><path
     d="m 1000.0565,86.895899 c 0,10.168816 -7.11818,15.253221 -15.57863,18.202181 a 2.0337631,2.0337631 0 0 1 -1.36262,-0.0203 c -8.4808,-2.92862 -15.59897,-8.013025 -15.59897,-18.181841 V 72.659558 a 2.0337631,2.0337631 0 0 1 2.03377,-2.033764 c 4.06752,0 9.15193,-2.440515 12.69068,-5.531835 a 2.3795028,2.3795028 0 0 1 3.09132,0 c 3.55908,3.111657 8.62315,5.531835 12.69068,5.531835 a 2.0337631,2.0337631 0 0 1 2.03377,2.033764 z"
     style="fill:#5fbcd3;stroke:#5fbcd3;stroke-width:4.06753;stroke-linecap:round;stroke-linejoin:round;stroke-opacity:1"
     id="path1" /><g
     style="fill:none;stroke:#ffffff;stroke-width:2;stroke-linecap:round;stroke-linejoin:round"
     transform="matrix(1.2171169,0,0,1.2171169,969.18098,70.005458)"
     id="g2"><path
       d="m 6,16 c 5,0 7,-8 12,-8 a 4,4 0 0 1 0,8 C 13,16 11,8 6,8 a 4,4 0 1 0 0,8"
       id="path2"
       style="fill:none;stroke:#ffffff" /></g></svg>
