<?xml version="1.0" encoding="UTF-8" standalone="no"?>
<svg
   width="18"
   height="21.999857"
   viewBox="0 0 18 21.999857"
   fill="none"
   stroke="currentColor"
   stroke-width="2"
   stroke-linecap="round"
   stroke-linejoin="round"
   class="lucide lucide-shield-icon lucide-shield"
   version="1.1"
   id="svg1"
   sodipodi:docname="burger.svg"
   xml:space="preserve"
   inkscape:version="1.3.2 (091e20e, 2023-11-25, custom)"
   xmlns:inkscape="http://www.inkscape.org/namespaces/inkscape"
   xmlns:sodipodi="http://sodipodi.sourceforge.net/DTD/sodipodi-0.dtd"
   xmlns="http://www.w3.org/2000/svg"
   xmlns:svg="http://www.w3.org/2000/svg"><defs
     id="defs1"><mask
       maskUnits="userSpaceOnUse"
       id="mask4"><g
         id="g6"><rect
           style="fill:#ffffff;stroke:#ffffff;stroke-width:0;stroke-linecap:square;stroke-linejoin:round;stroke-miterlimit:0;paint-order:markers fill stroke"
           id="rect4"
           width="18"
           height="3.1429999"
           x="0"
           y="3.1429999"
           ry="0.60231662" /><rect
           style="fill:#ffffff;stroke:#ffffff;stroke-width:0;stroke-linecap:square;stroke-linejoin:round;stroke-miterlimit:0;paint-order:markers fill stroke"
           id="rect5"
           width="18"
           height="3.1429999"
           x="0"
           y="9.4289999"
           ry="0.60231662" /><rect
           style="fill:#ffffff;stroke:#ffffff;stroke-width:0;stroke-linecap:square;stroke-linejoin:round;stroke-miterlimit:0;paint-order:markers fill stroke"
           id="rect6"
           width="18"
           height="3.1429999"
           x="0"
           y="15.715"
           ry="0.60231662" /></g></mask></defs><sodipodi:namedview
     id="namedview1"
     pagecolor="#ffffff"
     bordercolor="#000000"
     borderopacity="0.25"
     inkscape:showpageshadow="2"
     inkscape:pageopacity="0.0"
     inkscape:pagecheckerboard="0"
     inkscape:deskcolor="#d1d1d1"
     inkscape:zoom="22.892582"
     inkscape:cx="7.4259863"
     inkscape:cy="7.0110047"
     inkscape:window-width="1920"
     inkscape:window-height="991"
     inkscape:window-x="-9"
     inkscape:window-y="-9"
     inkscape:window-maximized="1"
     inkscape:current-layer="svg1" /><g
     id="g4"
     mask="url(#mask4)"><path
       d="m 17,11.997006 c 0,5 -3.5,7.5 -7.66,8.95 a 1,1 0 0 1 -0.67,-0.01 c -4.17,-1.44 -7.67,-3.94 -7.67,-8.94 v -7 a 1,1 0 0 1 1,-1 c 2,0 4.5,-1.2 6.24,-2.72 a 1.17,1.17 0 0 1 1.52,0 c 1.75,1.53 4.24,2.72 6.24,2.72 a 1,1 0 0 1 1,1 z"
       id="path1"
       style="fill:#5fbcd3" /><g
       style="fill:none;stroke:currentColor;stroke-width:2;stroke-linecap:round;stroke-linejoin:round"
       id="g2"
       transform="matrix(0.5984556,0,0,0.5984556,1.8185328,3.6919867)"><path
         d="m 6,16 c 5,0 7,-8 12,-8 a 4,4 0 0 1 0,8 C 13,16 11,8 6,8 a 4,4 0 1 0 0,8"
         id="path1-3" /></g></g></svg>
